<svg width="1440" height="841" viewBox="0 0 1440 841" fill="none" xmlns="http://www.w3.org/2000/svg">
<path fill-rule="evenodd" clip-rule="evenodd" d="M0 0L48 4.96296C96 9.92593 192 19.8519 288 37.2222C384 54.5926 480 79.4074 576 81.8889C672 84.3704 768 64.5185 864 47.1481C960 29.7778 1056 14.8889 1152 12.4074C1248 9.92593 1344 19.8519 1392 24.8148L1440 29.7778V134H1392C1344 134 1248 134 1152 134C1056 134 960 134 864 134C768 134 672 134 576 134C480 134 384 134 288 134C192 134 96 134 48 134H0V0Z" fill="#D9D9D9"/>
<path fill-rule="evenodd" clip-rule="evenodd" d="M1439.61 840.662L1391.61 835.284C1343.62 829.905 1247.63 819.148 1151.7 800.947C1055.78 782.746 959.916 757.1 863.861 753.787C767.807 750.474 671.559 769.494 575.333 786.032C479.107 802.57 382.902 816.627 286.805 818.277C190.707 819.927 94.7174 809.17 46.7225 803.791L-1.27254 798.413L-0.370552 694.194L47.6674 694.61C95.7053 695.026 191.781 695.857 287.857 696.689C383.933 697.52 480.009 698.352 576.085 699.184C672.161 700.015 768.237 700.847 864.312 701.678C960.388 702.51 1056.46 703.341 1152.54 704.173C1248.62 705.004 1344.69 705.836 1392.73 706.251L1440.77 706.667L1439.61 840.662Z" fill="#D9D9D9"/>
<rect x="3.05176e-05" y="106" width="1440" height="612" fill="#D9D9D9"/>
</svg>
